<svg width="34" height="34" viewBox="0 0 34 34" fill="none" xmlns="http://www.w3.org/2000/svg">
<path fill-rule="evenodd" clip-rule="evenodd" d="M25.8 17.0001C25.8 21.8602 21.8601 25.8001 17 25.8001C12.1398 25.8001 8.19995 21.8602 8.19995 17.0001C8.19995 12.14 12.1398 8.20007 17 8.20007C21.8601 8.20007 25.8 12.14 25.8 17.0001Z" stroke="#464B50" stroke-width="1.5"/>
<line x1="32.2098" y1="16.9902" x2="28.9901" y2="16.9902" stroke="#464B50" stroke-width="1.58025" stroke-linecap="round" stroke-linejoin="round"/>
<line x1="5.0098" y1="16.9902" x2="1.79005" y2="16.9902" stroke="#464B50" stroke-width="1.58025" stroke-linecap="round" stroke-linejoin="round"/>
<g clip-path="url(#clip0)">
<line x1="30.177" y1="24.5963" x2="27.3886" y2="22.9865" stroke="#464B50" stroke-width="1.58025" stroke-linecap="round" stroke-linejoin="round"/>
</g>
<g clip-path="url(#clip1)">
<line x1="6.62117" y1="10.9964" x2="3.83278" y2="9.38648" stroke="#464B50" stroke-width="1.58025" stroke-linecap="round" stroke-linejoin="round"/>
</g>
<g clip-path="url(#clip2)">
<line x1="24.6135" y1="30.1672" x2="23.0036" y2="27.3788" stroke="#464B50" stroke-width="1.58025" stroke-linecap="round" stroke-linejoin="round"/>
</g>
<g clip-path="url(#clip3)">
<line x1="11.0134" y1="6.61143" x2="9.40351" y2="3.82304" stroke="#464B50" stroke-width="1.58025" stroke-linecap="round" stroke-linejoin="round"/>
</g>
<g clip-path="url(#clip4)">
<line x1="17.0099" y1="32.21" x2="17.0099" y2="28.9902" stroke="#464B50" stroke-width="1.58025" stroke-linecap="round" stroke-linejoin="round"/>
</g>
<g clip-path="url(#clip5)">
<line x1="17.0099" y1="5.00993" x2="17.0099" y2="1.79017" stroke="#464B50" stroke-width="1.58025" stroke-linecap="round" stroke-linejoin="round"/>
</g>
<g clip-path="url(#clip6)">
<line x1="9.40367" y1="30.177" x2="11.0135" y2="27.3886" stroke="#464B50" stroke-width="1.58025" stroke-linecap="round" stroke-linejoin="round"/>
</g>
<g clip-path="url(#clip7)">
<line x1="23.0035" y1="6.62123" x2="24.6134" y2="3.83284" stroke="#464B50" stroke-width="1.58025" stroke-linecap="round" stroke-linejoin="round"/>
</g>
<g clip-path="url(#clip8)">
<line x1="3.83272" y1="24.6137" x2="6.62111" y2="23.0038" stroke="#464B50" stroke-width="1.58025" stroke-linecap="round" stroke-linejoin="round"/>
</g>
<g clip-path="url(#clip9)">
<line x1="27.3886" y1="11.0136" x2="30.177" y2="9.40369" stroke="#464B50" stroke-width="1.58025" stroke-linecap="round" stroke-linejoin="round"/>
</g>
<defs>
<clipPath id="clip0">
<rect x="26.8066" y="20.8143" width="6.4" height="3.2" rx="1.6" transform="rotate(30 26.8066 20.8143)" fill="white"/>
</clipPath>
<clipPath id="clip1">
<rect x="3.25073" y="7.21436" width="6.4" height="3.2" rx="1.6" transform="rotate(30 3.25073 7.21436)" fill="white"/>
</clipPath>
<clipPath id="clip2">
<rect x="23.5856" y="25.2068" width="6.4" height="3.2" rx="1.6" transform="rotate(60 23.5856 25.2068)" fill="white"/>
</clipPath>
<clipPath id="clip3">
<rect x="9.9856" y="1.65088" width="6.4" height="3.2" rx="1.6" transform="rotate(60 9.9856 1.65088)" fill="white"/>
</clipPath>
<clipPath id="clip4">
<rect x="18.6" y="27.4" width="6.4" height="3.2" rx="1.6" transform="rotate(90 18.6 27.4)" fill="white"/>
</clipPath>
<clipPath id="clip5">
<rect x="18.6" y="0.200073" width="6.4" height="3.2" rx="1.6" transform="rotate(90 18.6 0.200073)" fill="white"/>
</clipPath>
<clipPath id="clip6">
<rect x="13.1856" y="26.8068" width="6.4" height="3.2" rx="1.6" transform="rotate(120 13.1856 26.8068)" fill="white"/>
</clipPath>
<clipPath id="clip7">
<rect x="26.7856" y="3.25085" width="6.4" height="3.2" rx="1.6" transform="rotate(120 26.7856 3.25085)" fill="white"/>
</clipPath>
<clipPath id="clip8">
<rect x="8.79333" y="23.5858" width="6.4" height="3.2" rx="1.6" transform="rotate(150 8.79333 23.5858)" fill="white"/>
</clipPath>
<clipPath id="clip9">
<rect x="32.3492" y="9.98572" width="6.4" height="3.2" rx="1.6" transform="rotate(150 32.3492 9.98572)" fill="white"/>
</clipPath>
</defs>
</svg>
