<svg xmlns="http://www.w3.org/2000/svg" width="16" height="16" fill="none">
  <g clip-path="url(#a)">
    <path fill="#000" fill-opacity=".87" d="M9.533 8.12a.167.167 0 0 1 0-.237L15.71 1.71A1 1 0 1 0 14.293.295L8.118 6.467a.167.167 0 0 1-.236 0L1.707.295A1 1 0 0 0 .293 1.709l6.174 6.174a.167.167 0 0 1 0 .236L.293 14.295a1 1 0 1 0 1.414 1.414l6.175-6.176a.167.167 0 0 1 .236 0l6.175 6.176a1 1 0 0 0 1.414-1.414L9.533 8.119Z"/>
  </g>
  <defs>
    <clipPath id="a">
      <path fill="#fff" d="M0 0h16v16H0z"/>
    </clipPath>
  </defs>
</svg>
