<svg xmlns="http://www.w3.org/2000/svg" width="48" height="48" fill="none">
  <path fill="#F3F3F3" fill-rule="evenodd" d="M33.813 21.064s.184.936.247.945C37.454 22.493 40 24.472 40 28a7 7 0 0 1-7 7H15a7 7 0 0 1-.997-13.93.85.85 0 0 1 .184-.006C15.09 16.468 19.14 13 24 13s8.911 3.468 9.813 8.064Z" clip-rule="evenodd"/>
  <path stroke="#231815" stroke-linecap="round" stroke-linejoin="round" stroke-width="2" d="M15.53 35C11.37 35 8 31.717 8 27.667c0-3.538 2.572-6.49 5.994-7.181C15.17 16.176 19.204 13 24 13c5.422 0 9.87 4.059 10.316 9.227 3.21.429 5.684 3.111 5.684 6.356C40 32.127 37.05 35 33.412 35H15.529Z"/>
</svg>
