<svg xmlns="http://www.w3.org/2000/svg" xml:space="preserve" style="fill-rule:evenodd;clip-rule:evenodd" viewBox="0 0 49 48">
  <path d="M41.25 17a8.25 8.25 0 1 1-16.5 0 8.25 8.25 0 0 1 16.5 0Z" style="fill:none;stroke:#231815;stroke-width:2px"/>
  <path d="M47 17.25h-2.5M21.5 17.25H19" style="fill:none;fill-rule:nonzero;stroke:#f25022;stroke-width:2px;stroke-linecap:round;stroke-linejoin:round"/>
  <path d="M47 17.25h-2.5M21.5 17.25H19M44.999 24.216l-2.165-1.25M39.783 29.25l-1.25-2.166M27.033 7.166l-1.25-2.165M32.75 31v-2.5M32.75 5.5V3M25.783 29l1.25-2.166M38.533 6.916l1.25-2.165M20.751 23.784l2.165-1.25M42.834 11.034l2.165-1.25" style="fill:none;fill-rule:nonzero;stroke:#231815;stroke-width:2px;stroke-linecap:round;stroke-linejoin:round"/>
  <path d="M40.5 17a7.5 7.5 0 1 1-15 0 7.5 7.5 0 0 1 15 0Z" style="fill:#ffb900;fill-rule:nonzero"/>
  <path d="M22.36 14.798s.138.702.185.709C25.09 15.87 27 17.354 27 20c0 2.9-2.35 5.25-5.25 5.25H8.25a5.25 5.25 0 0 1-.748-10.447.645.645 0 0 1 .138-.005A7.504 7.504 0 0 1 15 8.75a7.504 7.504 0 0 1 7.36 6.048Z" style="fill:#f3f3f3"/>
  <path d="M8.647 25.25C5.528 25.25 3 22.788 3 19.75c0-2.653 1.929-4.868 4.495-5.385C8.378 11.132 11.403 8.75 15 8.75c4.066 0 7.402 3.044 7.737 6.92 2.408.322 4.263 2.334 4.263 4.768 0 2.657-2.212 4.812-4.941 4.812H8.647Z" style="fill:none;fill-rule:nonzero;stroke:#231815;stroke-width:2px;stroke-linecap:round;stroke-linejoin:round"/>
  <path d="M33.813 21.064s.184.936.247.945C37.454 22.493 40 24.473 40 28a7 7 0 0 1-7 7H15a7 7 0 0 1-.997-13.929.882.882 0 0 1 .184-.007C15.089 16.468 19.14 13 24 13s8.911 3.468 9.813 8.064Z" style="fill:#f3f3f3"/>
  <path d="M15.529 35C11.371 35 8 31.717 8 27.667c0-3.538 2.572-6.49 5.994-7.181C15.17 16.176 19.204 13 24 13c5.422 0 9.87 4.059 10.316 9.227 3.211.429 5.684 3.111 5.684 6.356C40 32.127 37.05 35 33.412 35H15.529Z" style="fill:none;fill-rule:nonzero;stroke:#231815;stroke-width:2px;stroke-linecap:round;stroke-linejoin:round"/>
</svg>
