<svg xmlns="http://www.w3.org/2000/svg" width="48" height="48" fill="none">
  <path fill="#F3F3F3" fill-rule="evenodd" d="M33.813 21.064s.184.936.247.945C37.454 22.493 40 24.472 40 28a7 7 0 0 1-7 7H15a7 7 0 0 1-.997-13.93.85.85 0 0 1 .184-.006C15.09 16.468 19.14 13 24 13s8.911 3.468 9.813 8.064Z" clip-rule="evenodd"/>
  <path stroke="#231815" stroke-linecap="round" stroke-linejoin="round" stroke-width="2" d="M33 35h.412C37.05 35 40 32.127 40 28.583c0-3.245-2.473-5.927-5.684-6.356C33.87 17.059 29.421 13 24 13c-4.796 0-8.83 3.176-10.006 7.486-3.422.69-5.994 3.643-5.994 7.18 0 3.877 3.089 7.052 7 7.316"/>
  <path fill="#231815" d="M19.273 28.875a.875.875 0 1 1 1.75 0v1.11l.961-.555a.875.875 0 0 1 .875 1.515l-.96.555.96.555a.875.875 0 0 1-.875 1.515l-.96-.554v1.109a.875.875 0 0 1-1.75 0v-1.11l-.961.555a.875.875 0 0 1-.875-1.515l.96-.555-.96-.555a.875.875 0 0 1 .875-1.515l.96.555v-1.11ZM27.273 30.875a.875.875 0 1 1 1.75 0v1.11l.961-.555a.875.875 0 0 1 .875 1.515l-.96.555.96.555a.875.875 0 0 1-.875 1.515l-.96-.554v1.109a.875.875 0 0 1-1.75 0v-1.11l-.961.555a.875.875 0 0 1-.875-1.515l.96-.555-.96-.555a.875.875 0 0 1 .875-1.515l.96.555v-1.11ZM21.273 36.375a.875.875 0 1 1 1.75 0v1.11l.961-.555a.875.875 0 0 1 .875 1.515L23.9 39l.96.555a.875.875 0 0 1-.875 1.515l-.96-.554v1.109a.875.875 0 0 1-1.75 0v-1.11l-.961.555a.875.875 0 0 1-.875-1.515l.96-.555-.96-.555a.875.875 0 0 1 .875-1.515l.96.554v-1.109Z"/>
</svg>
