<svg xmlns="http://www.w3.org/2000/svg" xml:space="preserve" style="fill-rule:evenodd;clip-rule:evenodd" viewBox="0 0 48 48">
  <path d="M35 24c0 6.075-4.925 11-11 11s-11-4.925-11-11 4.925-11 11-11 11 4.925 11 11Z" style="fill:none;stroke:#231815;stroke-width:2px"/>
  <path d="M43 24h-4M9 24H5" style="fill:none;fill-rule:nonzero;stroke:#f25022;stroke-width:2px;stroke-linecap:round;stroke-linejoin:round"/>
  <path d="M43 24h-4M9 24H5M40.455 33.5l-3.464-2M11.01 16.5l-3.464-2M33.5 40.455l-2-3.465M16.5 11.01l-2-3.464M24 43v-4M24 9V5M14.5 40.455l2-3.465M31.5 11.01l2-3.464M7.545 33.5l3.464-2M36.99 16.5l3.464-2" style="fill:none;fill-rule:nonzero;stroke:#231815;stroke-width:2px;stroke-linecap:round;stroke-linejoin:round"/>
  <path d="M34 24c0 5.523-4.477 10-10 10s-10-4.477-10-10 4.477-10 10-10 10 4.477 10 10Z" style="fill:#ffb900;fill-rule:nonzero"/>
</svg>
