<svg xmlns="http://www.w3.org/2000/svg" width="48" height="48" fill="none">
  <path fill="#F3F3F3" fill-rule="evenodd" d="M33.813 21.064s.184.936.247.945C37.454 22.493 40 24.472 40 28a7 7 0 0 1-7 7H15a7 7 0 0 1-.997-13.93.85.85 0 0 1 .184-.006C15.09 16.468 19.14 13 24 13s8.911 3.468 9.813 8.064Z" clip-rule="evenodd"/>
  <path stroke="#231815" stroke-linecap="round" stroke-linejoin="round" stroke-width="2" d="M33 35h.412C37.05 35 40 32.127 40 28.583c0-3.245-2.473-5.927-5.684-6.356C33.87 17.059 29.421 13 24 13c-4.796 0-8.83 3.176-10.006 7.486-3.422.69-5.994 3.643-5.994 7.18 0 3.877 3.089 7.052 7 7.316"/>
  <path fill="#231815" fill-rule="evenodd" d="M26.866 37.562c-.478-.276-.605-.952-.283-1.51l2.334-4.042c.322-.558.97-.786 1.449-.51.478.276.605.952.283 1.51l-2.334 4.042c-.322.558-.97.786-1.449.51Z" clip-rule="evenodd"/>
  <path fill="#FFB900" d="M25.98 33.187a.334.334 0 0 0-.264-.224l-3.721-.551 1.707-3.93a.352.352 0 0 0-.025-.326.33.33 0 0 0-.278-.156h-5.197a.336.336 0 0 0-.331.33l-.24 6.983a.34.34 0 0 0 .285.351l2.587.384-3.462 6.445a.35.35 0 0 0 .097.443.323.323 0 0 0 .438-.047l8.337-9.356a.35.35 0 0 0 .068-.346Z"/>
</svg>
